<?xml version="1.0" standalone="no"?>
<!DOCTYPE svg PUBLIC "-//W3C//DTD SVG 20010904//EN"
 "http://www.w3.org/TR/2001/REC-SVG-20010904/DTD/svg10.dtd">
<svg version="1.0" xmlns="http://www.w3.org/2000/svg"
 width="1906.000000pt" height="975.000000pt" viewBox="0 0 1906.000000 975.000000"
 preserveAspectRatio="xMidYMid meet">

<g transform="translate(0.000000,975.000000) scale(0.100000,-0.100000)"
fill="#000000" stroke="none">
<path d="M520 9257 l-45 -22 -3 -97 c-1 -54 0 -98 2 -98 3 0 29 9 58 21 l52
20 54 -20 c30 -12 56 -21 58 -21 2 0 4 44 4 99 l0 98 -51 22 c-63 26 -73 26
-129 -2z m62 -34 l1 -38 4 38 c2 20 6 37 8 37 3 0 23 -7 45 -16 l40 -16 0 -79
c0 -43 -4 -79 -9 -79 -21 0 -67 22 -78 37 -8 11 -13 12 -13 4 0 -11 -57 -41
-80 -41 -6 0 -10 31 -10 79 l0 79 38 15 c51 22 52 22 54 -20z"/>
<path d="M17634 9196 c-45 -45 -47 -92 -5 -138 25 -28 36 -33 76 -33 40 0 51
5 76 33 42 46 40 93 -5 138 -26 26 -42 34 -71 34 -29 0 -45 -8 -71 -34z m34
-24 c-8 -20 -19 -32 -30 -32 -25 0 -22 17 8 47 31 31 37 27 22 -15z m112 -2
c14 -26 13 -30 -9 -30 -10 0 -21 8 -24 18 -2 9 -8 25 -12 36 -7 16 -6 17 13 7
12 -6 26 -20 32 -31z m-50 -17 c0 -7 -11 -13 -25 -13 -27 0 -31 10 -14 42 11
21 12 21 25 3 8 -10 14 -25 14 -32z m-64 -68 c13 -42 -5 -49 -30 -13 -21 29
-20 48 2 48 11 0 21 -12 28 -35z m64 19 c0 -8 -5 -25 -11 -36 -11 -21 -12 -21
-25 -3 -23 31 -18 55 11 55 16 0 25 -6 25 -16z m60 1 c0 -16 -34 -55 -49 -55
-4 0 -3 16 3 35 11 35 46 51 46 20z"/>
<path d="M806 9183 c-10 -10 -7 -133 4 -154 9 -16 21 -19 71 -18 l60 2 -3 85
c-2 57 -7 87 -15 90 -10 3 -13 -16 -13 -72 0 -72 -1 -76 -25 -82 -47 -12 -55
-1 -55 75 0 65 -8 90 -24 74z"/>
<path d="M998 9183 c-16 -4 -18 -18 -18 -119 0 -95 3 -114 15 -114 10 0 15 10
15 30 0 28 2 30 39 30 48 0 63 17 69 80 4 42 1 52 -21 74 -25 25 -55 31 -99
19z m80 -35 c16 -16 16 -90 0 -106 -7 -7 -25 -12 -40 -12 -28 0 -28 0 -28 65
0 65 0 65 28 65 15 0 33 -5 40 -12z"/>
<path d="M1160 9097 c0 -66 3 -88 13 -85 8 3 13 30 15 77 3 72 3 72 30 69 26
-3 27 -5 30 -75 2 -56 6 -73 17 -73 12 0 15 16 15 75 l0 75 30 0 30 0 0 -75
c0 -60 3 -75 15 -75 12 0 15 15 15 73 0 39 -5 79 -10 87 -7 12 -31 15 -105 15
l-95 1 0 -89z"/>
<path d="M1436 9169 c-21 -17 -26 -29 -26 -68 0 -71 19 -91 86 -91 30 0 54 5
54 10 0 6 -19 10 -43 10 -46 0 -67 13 -67 42 0 15 9 18 55 18 54 0 55 0 55 30
0 36 -31 70 -64 70 -13 0 -35 -9 -50 -21z m82 -36 c3 -21 -1 -23 -37 -23 -41
0 -46 5 -35 35 10 26 68 16 72 -12z"/>
<path d="M1595 9182 c-3 -3 -5 -43 -5 -89 0 -66 3 -83 15 -83 11 0 15 17 17
73 l3 72 35 0 35 0 3 -72 c2 -56 6 -73 17 -73 12 0 15 15 15 68 0 90 -12 106
-79 108 -28 0 -53 -2 -56 -4z"/>
<path d="M1777 9183 c-14 -13 -7 -128 9 -151 13 -18 24 -22 70 -21 l55 2 -3
83 c-4 104 -22 116 -26 17 -3 -68 -5 -73 -28 -79 -41 -10 -54 10 -54 87 0 64
-6 80 -23 62z"/>
<path d="M17961 9108 c1 -35 4 -51 6 -36 3 20 11 28 31 30 23 2 27 8 27 33 0
27 -4 30 -32 33 l-33 3 1 -63z m57 25 c3 -19 -1 -23 -22 -23 -21 0 -26 5 -26
26 0 21 4 25 23 22 14 -2 23 -11 25 -25z"/>
<path d="M18163 9110 c0 -36 2 -50 4 -32 2 17 2 47 0 65 -2 17 -4 3 -4 -33z"/>
<path d="M18282 9110 c0 -48 2 -59 8 -42 5 12 12 22 16 22 3 0 15 -10 26 -22
l20 -23 -17 28 c-16 27 -16 30 2 50 17 21 17 21 -8 0 -34 -30 -37 -29 -42 15
-2 22 -4 11 -5 -28z"/>
<path d="M18066 9124 c-19 -18 -20 -28 -6 -55 12 -21 50 -25 68 -7 18 18 14
56 -7 68 -27 14 -37 13 -55 -6z m58 -16 c7 -12 6 -21 -3 -32 -18 -22 -38 -20
-51 3 -7 15 -6 24 6 36 19 18 33 16 48 -7z"/>
<path d="M18207 9133 c-15 -14 -6 -34 19 -43 29 -12 22 -34 -9 -26 -14 3 -17
2 -10 -5 15 -15 48 -7 48 11 0 8 -10 19 -22 25 -29 12 -31 39 -3 32 11 -3 18
-1 14 4 -6 11 -28 12 -37 2z"/>
<path d="M18373 9095 c0 -27 2 -38 4 -22 2 15 2 37 0 50 -2 12 -4 0 -4 -28z"/>
<path d="M18512 9113 c27 -26 28 -26 48 -8 11 10 20 23 20 28 0 6 -9 2 -20 -8
-19 -17 -21 -17 -38 -2 -31 28 -39 19 -10 -10z"/>
<path d="M583 9025 c0 -22 2 -30 4 -17 2 12 2 30 0 40 -3 9 -5 -1 -4 -23z"/>
<path d="M532 9000 c0 -19 2 -27 5 -17 2 9 2 25 0 35 -3 9 -5 1 -5 -18z"/>
<path d="M6777 7513 c-4 -3 -7 -64 -7 -135 0 -121 1 -128 20 -128 19 0 20 7
20 135 0 106 -3 135 -13 135 -8 0 -17 -3 -20 -7z"/>
<path d="M6360 7490 c0 -18 7 -20 55 -20 30 0 55 -3 55 -6 0 -3 -27 -44 -60
-91 -83 -120 -83 -123 35 -123 88 0 95 1 95 20 0 18 -7 20 -66 20 l-65 0 65
94 c36 52 66 102 66 110 0 13 -15 16 -90 16 -83 0 -90 -1 -90 -20z"/>
<path d="M7520 7485 c0 -20 5 -25 25 -25 20 0 25 5 25 25 0 20 -5 25 -25 25
-20 0 -25 -5 -25 -25z"/>
<path d="M7850 7485 c0 -20 5 -25 25 -25 20 0 25 5 25 25 0 20 -5 25 -25 25
-20 0 -25 -5 -25 -25z"/>
<path d="M6592 7424 c-12 -8 -22 -19 -22 -23 0 -18 32 -20 56 -5 19 13 27 14
39 4 24 -20 18 -29 -22 -36 -53 -9 -83 -30 -83 -59 0 -41 23 -54 100 -53 l70
0 0 65 c0 62 -11 100 -34 115 -19 13 -81 9 -104 -8z m88 -109 c0 -21 -47 -42
-62 -27 -6 6 -8 18 -5 26 8 21 67 22 67 1z"/>
<path d="M6879 7411 c-88 -89 43 -219 138 -137 23 20 28 32 28 71 0 39 -5 51
-28 71 -41 35 -99 33 -138 -5z m109 -23 c7 -7 12 -26 12 -43 0 -38 -16 -55
-50 -55 -34 0 -50 17 -50 55 0 38 16 55 50 55 14 0 31 -5 38 -12z"/>
<path d="M7105 7415 c-34 -33 -33 -84 1 -124 27 -33 67 -41 105 -21 22 12 25
0 9 -31 -12 -21 -76 -27 -82 -8 -2 7 -13 9 -26 5 -53 -17 35 -75 92 -60 52 13
66 46 66 160 0 97 -1 104 -20 104 -11 0 -20 -5 -20 -12 0 -9 -3 -9 -12 0 -22
22 -86 14 -113 -13z m109 -31 c20 -19 20 -34 0 -62 -29 -41 -84 -23 -84 28 0
14 5 31 12 38 17 17 54 15 72 -4z"/>
<path d="M7312 7359 c3 -66 7 -83 23 -95 23 -17 77 -18 93 -2 9 9 12 9 12 0 0
-7 9 -12 20 -12 19 0 20 7 20 95 0 94 0 95 -25 95 -23 0 -24 -3 -27 -72 l-3
-73 -30 0 -30 0 -3 73 c-3 70 -4 72 -28 72 l-26 0 4 -81z"/>
<path d="M7520 7329 c0 -102 -2 -111 -20 -116 -11 -3 -20 -14 -20 -24 0 -27
36 -24 65 6 24 23 25 31 25 135 l0 110 -25 0 -25 0 0 -111z"/>
<path d="M7687 7422 c-36 -39 -12 -81 56 -97 29 -8 37 -32 13 -41 -8 -3 -29 2
-45 12 -41 24 -63 6 -32 -25 37 -37 126 -24 131 19 6 44 -3 54 -74 80 -27 10
-28 12 -13 27 14 14 18 15 39 1 23 -15 48 -14 48 2 0 38 -94 55 -123 22z"/>
<path d="M7850 7345 c0 -95 0 -95 25 -95 25 0 25 0 25 95 0 95 0 95 -25 95
-25 0 -25 0 -25 -95z"/>
<path d="M7967 7420 c-47 -37 -42 -129 9 -158 13 -7 14 -13 5 -31 -17 -31 2
-61 39 -61 20 0 30 5 30 15 0 9 -9 15 -21 15 -15 0 -20 5 -17 22 2 16 12 24
35 29 33 7 63 25 63 39 0 12 -39 19 -46 9 -8 -13 -58 -11 -72 3 -23 23 -12 28
58 28 64 0 70 2 70 20 0 29 -26 76 -45 84 -33 12 -83 6 -108 -14z m89 -24 c26
-20 14 -28 -37 -24 -41 3 -42 4 -25 21 21 21 36 22 62 3z"/>
<path d="M6372 6835 l2 -90 5 70 6 69 45 -66 c25 -37 48 -68 53 -68 4 0 6 39
5 88 -1 61 -3 71 -5 32 -6 -86 -10 -88 -54 -24 -23 33 -45 63 -50 69 -5 5 -8
-27 -7 -80z"/>
<path d="M6531 6904 c0 -11 3 -14 6 -6 3 7 2 16 -1 19 -3 4 -6 -2 -5 -13z"/>
<path d="M7340 6835 c0 -50 4 -85 10 -85 6 0 10 8 10 19 0 10 6 24 14 30 12
10 18 6 32 -18 10 -17 22 -31 26 -31 12 0 10 3 -17 40 l-25 34 22 25 c13 14 6
10 -15 -8 l-37 -35 0 57 c0 31 -4 57 -10 57 -6 0 -10 -35 -10 -85z"/>
<path d="M7968 6909 c-10 -5 -18 -15 -18 -20 0 -6 10 -3 21 5 44 30 65 -6 29
-51 -32 -40 -23 -51 10 -13 34 41 38 65 11 80 -24 12 -31 12 -53 -1z"/>
<path d="M8100 6910 c0 -5 20 -10 45 -10 l46 0 -41 -60 c-62 -91 -62 -90 6
-88 57 2 58 2 12 5 -27 2 -48 8 -48 12 0 4 20 36 45 72 25 35 45 67 45 72 0 4
-25 7 -55 7 -30 0 -55 -4 -55 -10z"/>
<path d="M8580 6904 c0 -8 5 -12 10 -9 6 4 8 11 5 16 -9 14 -15 11 -15 -7z"/>
<path d="M9181 6904 c0 -11 3 -14 6 -6 3 7 2 16 -1 19 -3 4 -6 -2 -5 -13z"/>
<path d="M9380 6904 c0 -8 5 -12 10 -9 6 4 8 11 5 16 -9 14 -15 11 -15 -7z"/>
<path d="M7748 6881 c-13 -16 -14 -20 -3 -25 8 -3 15 -24 17 -53 2 -39 7 -48
23 -51 18 -2 18 -2 3 8 -21 13 -25 79 -6 98 8 8 9 12 1 12 -6 0 -13 7 -15 15
-2 13 -6 13 -20 -4z"/>
<path d="M8888 6879 c-13 -14 -14 -18 -3 -23 8 -3 15 -24 17 -53 2 -39 7 -48
23 -51 18 -2 18 -2 3 8 -13 8 -18 24 -18 55 0 33 4 45 18 48 15 4 15 5 0 6 -9
0 -18 7 -20 14 -2 9 -7 8 -20 -4z"/>
<path d="M6533 6810 c0 -36 2 -50 4 -32 2 17 2 47 0 65 -2 17 -4 3 -4 -33z"/>
<path d="M6596 6854 c-33 -33 -8 -104 36 -104 24 0 48 11 48 21 0 6 -8 5 -19
-1 -27 -14 -37 -13 -55 6 -26 26 -18 34 34 34 54 0 58 4 34 38 -18 26 -56 29
-78 6z m64 -9 c18 -21 9 -27 -36 -23 -36 3 -37 4 -20 21 21 21 40 22 56 2z"/>
<path d="M6762 6805 c1 -55 2 -56 5 -13 7 89 63 91 74 2 l6 -49 1 46 c2 50 19
73 46 63 12 -4 16 -19 16 -55 0 -27 5 -49 10 -49 13 0 13 76 0 101 -11 20 -54
26 -65 9 -5 -8 -11 -8 -19 -1 -7 6 -27 9 -44 8 l-32 -2 2 -60z"/>
<path d="M6977 6864 c-13 -14 -7 -26 8 -14 17 14 58 4 52 -13 -2 -7 -16 -14
-32 -17 -32 -6 -51 -30 -42 -54 5 -12 17 -16 47 -14 l41 3 -3 55 c-3 53 -4 55
-33 58 -17 2 -34 0 -38 -4z m63 -69 c0 -22 -47 -42 -62 -27 -8 8 -8 15 2 27
16 20 60 20 60 0z"/>
<path d="M7096 6855 c-10 -28 -7 -34 29 -49 19 -8 35 -20 35 -26 0 -17 -26
-23 -49 -10 -14 7 -21 7 -21 1 0 -13 45 -25 65 -17 27 10 18 47 -15 59 -18 7
-30 19 -30 29 0 21 30 24 49 6 11 -11 13 -10 9 2 -7 22 -64 25 -72 5z"/>
<path d="M7215 6863 c47 -10 47 -12 16 -52 -41 -52 -40 -61 12 -59 36 1 38 2
10 5 -18 2 -33 7 -33 11 0 4 14 25 30 46 17 22 30 43 30 48 0 4 -19 7 -42 7
-24 -1 -34 -3 -23 -6z"/>
<path d="M7476 6848 c-21 -30 -20 -54 4 -78 39 -39 100 -14 100 42 0 53 -74
79 -104 36z m78 -7 c34 -37 -10 -94 -54 -71 -26 14 -27 65 -2 79 25 15 37 13
56 -8z"/>
<path d="M7610 6808 c0 -32 4 -58 10 -58 6 0 10 22 10 49 0 34 4 51 15 55 32
12 45 -5 45 -55 0 -27 5 -49 10 -49 13 0 13 76 0 101 -8 14 -20 18 -50 17
l-40 -1 0 -59z"/>
<path d="M7840 6855 c-14 -17 0 -21 17 -4 15 15 43 4 43 -16 0 -9 -9 -15 -23
-15 -13 0 -32 -6 -43 -14 -31 -24 -7 -51 45 -51 l41 -1 0 46 c0 25 -5 51 -12
58 -17 17 -53 15 -68 -3z m58 -67 c-19 -29 -46 -35 -54 -13 -8 20 11 35 45 35
22 0 23 -1 9 -22z"/>
<path d="M8250 6855 c-15 -18 -7 -19 20 -3 16 10 23 10 37 -4 18 -19 16 -20
-38 -32 -60 -13 -41 -67 22 -63 38 2 39 3 39 40 0 21 -5 47 -10 58 -13 23 -52
25 -70 4z m70 -53 c0 -17 -39 -44 -55 -39 -18 8 -20 33 -2 40 20 9 57 8 57 -1z"/>
<path d="M8372 6805 c1 -56 2 -57 5 -13 3 35 10 52 26 63 22 15 22 15 -6 13
-26 -2 -27 -4 -25 -63z"/>
<path d="M8457 6852 c-10 -10 -17 -30 -17 -44 0 -48 62 -77 91 -41 13 15 12
15 -8 5 -29 -16 -39 -15 -57 4 -26 26 -18 34 34 34 54 0 58 4 34 38 -18 27
-55 29 -77 4z m61 -4 c21 -21 13 -28 -28 -28 -22 0 -40 4 -40 8 0 14 23 32 40
32 9 0 21 -5 28 -12z"/>
<path d="M8580 6799 c0 -57 -4 -75 -17 -85 -20 -15 -6 -19 17 -4 18 11 29 160
11 160 -7 0 -11 -26 -11 -71z"/>
<path d="M8647 6852 c-10 -10 -17 -30 -17 -44 0 -48 62 -77 91 -41 13 15 12
15 -8 5 -29 -16 -39 -15 -57 4 -26 26 -18 34 34 34 54 0 58 4 34 38 -18 27
-55 29 -77 4z m61 -4 c21 -21 13 -28 -28 -28 -22 0 -40 4 -40 8 0 14 23 32 40
32 9 0 21 -5 28 -12z"/>
<path d="M8781 6856 c-16 -19 -5 -40 29 -53 17 -6 30 -16 30 -22 0 -19 -31
-25 -54 -11 -19 12 -20 12 -7 -4 21 -25 65 -17 69 12 3 18 -4 26 -32 37 -20 9
-36 20 -36 25 0 17 31 24 51 11 11 -6 19 -7 19 -2 0 22 -52 27 -69 7z"/>
<path d="M8970 6809 c0 -33 4 -59 10 -59 6 0 10 22 10 50 0 35 5 52 17 58 13
8 11 10 -10 10 -26 0 -27 -2 -27 -59z"/>
<path d="M9052 6824 c-2 -59 10 -75 56 -71 l32 2 -2 60 -1 60 -6 -49 c-11 -89
-67 -87 -74 2 l-3 47 -2 -51z"/>
<path d="M9182 6806 c-1 -48 -7 -75 -19 -88 -9 -10 -11 -18 -6 -18 25 0 34 30
30 102 l-3 73 -2 -69z"/>
<path d="M9277 6863 c-18 -18 -5 -45 29 -59 34 -14 36 -17 20 -32 -13 -14 -20
-14 -36 -4 -27 16 -35 15 -20 -3 26 -31 88 -8 74 28 -3 9 -19 20 -35 26 -16 5
-29 15 -29 21 0 16 30 24 43 11 17 -17 31 -13 17 4 -13 15 -51 20 -63 8z"/>
<path d="M9380 6810 c0 -33 4 -60 10 -60 6 0 10 27 10 60 0 33 -4 60 -10 60
-6 0 -10 -27 -10 -60z"/>
<path d="M9447 6852 c-22 -24 -21 -51 0 -82 10 -14 16 -35 15 -47 -3 -18 1
-23 20 -22 17 1 18 3 6 6 -28 7 -21 33 12 44 17 6 30 16 30 22 0 7 -4 7 -12
-1 -17 -17 -42 -15 -61 6 -26 28 -21 32 33 32 54 0 58 4 34 38 -18 27 -55 29
-77 4z m69 -9 c17 -17 17 -18 -9 -21 -15 -2 -37 -2 -49 0 -21 3 -21 4 -4 21
10 9 24 17 31 17 7 0 21 -8 31 -17z"/>
<path d="M6510 6055 l0 -65 43 2 42 1 -37 4 c-32 4 -38 8 -38 28 0 20 6 24 38
28 l37 4 -37 1 c-33 2 -38 5 -38 26 0 21 5 25 38 29 l37 4 -42 1 -43 2 0 -65z"/>
<path d="M6710 6072 c0 -4 27 -7 59 -7 33 0 57 3 55 6 -5 9 -114 9 -114 1z"/>
<path d="M6915 6040 c3 -5 8 -10 11 -10 2 0 4 5 4 10 0 6 -5 10 -11 10 -5 0
-7 -4 -4 -10z"/>
<path d="M6633 6033 c9 -2 23 -2 30 0 6 3 -1 5 -18 5 -16 0 -22 -2 -12 -5z"/>
<path d="M6863 6024 c-3 -8 -1 -20 5 -26 13 -13 62 -2 62 14 0 9 -3 9 -12 0
-17 -17 -48 -15 -48 2 0 8 6 17 13 19 9 4 9 6 -1 6 -7 1 -15 -6 -19 -15z"/>
<path d="M6513 5185 c0 -38 2 -56 4 -38 4 29 7 32 46 36 l42 4 -42 1 c-39 2
-42 4 -46 35 -2 17 -4 1 -4 -38z"/>
<path d="M6841 5225 c0 -17 -7 -37 -13 -44 -9 -10 -9 -12 -1 -7 8 4 13 -5 15
-26 3 -32 4 -32 8 7 3 22 2 54 -1 70 l-7 30 -1 -30z"/>
<path d="M6687 5203 c6 -4 10 -23 9 -41 -1 -18 2 -36 7 -39 4 -3 7 14 5 38 -2
27 -8 44 -18 46 -10 3 -11 2 -3 -4z"/>
<path d="M6745 5200 c-8 -13 13 -40 31 -40 8 0 14 -7 14 -16 0 -12 -7 -15 -26
-11 -16 3 -22 1 -16 -5 15 -15 46 -5 50 15 2 11 -6 20 -23 27 -18 7 -25 15
-21 25 6 17 0 20 -9 5z"/>
<path d="M6896 5193 c-6 -14 -5 -16 5 -5 16 15 55 16 62 2 3 -6 4 -5 3 2 -4
21 -62 22 -70 1z"/>
<path d="M6645 5160 c-3 -6 1 -7 9 -4 18 7 21 14 7 14 -6 0 -13 -4 -16 -10z"/>
<path d="M6890 5155 c-1 -33 50 -46 71 -17 11 14 11 15 -1 5 -20 -18 -47 -16
-59 5 -6 9 -11 12 -11 7z"/>
<path d="M6648 5128 c5 -5 16 -8 23 -6 8 3 3 7 -10 11 -17 4 -21 3 -13 -5z"/>
<path d="M6415 4631 c-11 -5 -29 -19 -40 -31 -19 -21 -20 -36 -20 -261 l0
-239 28 -27 27 -28 3115 0 3115 0 27 28 28 27 0 240 0 240 -28 27 -27 28
-3103 2 c-1706 1 -3111 -2 -3122 -6z m3023 -294 c2 -64 0 -77 -13 -77 -12 0
-15 15 -15 81 0 60 3 80 13 77 8 -3 13 -31 15 -81z m-148 68 c0 -2 -18 -30
-41 -62 l-40 -58 40 -3 c63 -5 48 -22 -19 -22 -33 0 -60 4 -60 8 0 5 18 34 41
65 l40 57 -40 0 c-23 0 -41 5 -41 10 0 6 27 10 60 10 33 0 60 -2 60 -5z m570
-11 c0 -9 -5 -14 -12 -12 -18 6 -21 28 -4 28 9 0 16 -7 16 -16z m-472 -80 c3
-50 2 -51 -27 -57 -37 -8 -57 -1 -66 21 -7 18 27 52 51 52 8 0 14 5 14 11 0 7
-11 8 -30 4 -18 -4 -30 -2 -30 3 0 14 20 21 55 19 29 -2 30 -4 33 -53z m178
28 l11 -23 17 26 c14 21 24 25 61 25 l45 0 0 -65 c0 -58 -3 -66 -25 -81 -28
-18 -70 -13 -79 11 -4 13 1 14 34 9 27 -4 40 -3 40 5 0 6 -13 11 -29 11 -20 0
-36 8 -50 28 -16 20 -20 23 -21 10 0 -10 -11 -25 -25 -34 -52 -34 -115 29 -81
81 14 22 24 26 54 23 26 -2 40 -9 48 -26z m182 -21 c3 -33 7 -42 20 -39 12 2
18 15 20 46 2 28 8 42 18 42 10 0 14 -14 14 -54 0 -52 -1 -54 -31 -60 -51 -10
-69 7 -69 65 0 63 23 63 28 0z m112 -20 c0 -74 -14 -100 -47 -86 -17 8 -17 8
0 12 14 4 17 16 17 74 0 55 3 69 15 69 12 0 15 -14 15 -69z"/>
<path d="M9333 4303 c-20 -8 -15 -23 7 -23 11 0 20 7 20 15 0 15 -6 17 -27 8z"/>
<path d="M9491 4336 c-19 -23 -4 -58 22 -54 17 2 22 10 22 33 0 34 -24 45 -44
21z"/>
<path d="M9620 4335 c-17 -21 -2 -50 26 -50 14 0 19 7 19 30 0 34 -24 45 -45
20z"/>
<path d="M8633 3683 c20 -2 37 -7 37 -11 0 -4 -11 -23 -23 -42 -13 -19 -32
-47 -42 -62 l-17 -28 53 2 c50 1 51 2 12 5 -24 2 -43 6 -43 8 0 2 18 30 40 61
22 32 40 61 40 66 0 4 -21 7 -47 6 -44 -1 -45 -2 -10 -5z"/>
<path d="M9571 3660 c0 -20 -6 -41 -13 -48 -9 -9 -9 -12 -1 -12 7 0 13 -15 15
-32 3 -29 4 -28 8 12 3 25 2 61 -1 80 l-6 35 -2 -35z"/>
<path d="M9963 3615 c0 -44 2 -61 4 -38 8 80 62 84 65 4 l1 -46 4 43 c5 52
-11 76 -43 68 -19 -5 -23 -1 -27 21 -2 16 -4 -8 -4 -52z"/>
<path d="M10302 3660 c-1 -20 -7 -41 -14 -48 -9 -9 -9 -12 -1 -12 7 0 14 -15
16 -32 3 -29 4 -27 5 10 1 23 7 42 12 42 6 0 10 5 10 11 0 5 -4 8 -9 4 -5 -3
-12 9 -14 27 l-4 33 -1 -35z"/>
<path d="M8743 3643 c-7 -2 -13 -9 -13 -15 0 -7 5 -6 14 1 16 13 49 4 43 -13
-2 -6 -17 -13 -33 -16 -23 -4 -29 -10 -29 -30 0 -22 4 -25 38 -25 37 -1 37 0
37 40 0 54 -19 74 -57 58z m47 -61 c0 -14 -23 -32 -42 -32 -18 0 -25 20 -11
33 9 10 53 9 53 -1z"/>
<path d="M8832 3575 c1 -44 3 -68 5 -53 4 24 8 27 34 21 38 -7 59 11 59 53 0
42 -33 64 -68 45 -15 -8 -22 -8 -25 2 -3 6 -5 -24 -5 -68z m69 55 c40 -22 13
-89 -30 -75 -29 9 -36 42 -15 66 20 22 20 22 45 9z"/>
<path d="M8980 3630 c-11 -11 -20 -26 -20 -33 0 -24 31 -57 55 -57 24 0 55 33
55 57 0 18 -37 53 -55 53 -8 0 -24 -9 -35 -20z m64 -9 c36 -40 -15 -91 -55
-55 -24 22 -24 29 1 54 25 25 32 25 54 1z"/>
<path d="M9102 3591 c2 -56 2 -56 5 -9 7 78 58 74 66 -5 l4 -42 1 46 c3 80 57
76 65 -4 l4 -42 1 42 c2 47 -20 79 -47 67 -9 -3 -20 -6 -26 -5 -5 0 -25 2 -42
4 l-33 4 2 -56z"/>
<path d="M9282 3590 c1 -49 2 -50 5 -13 8 80 62 84 65 4 l1 -46 4 43 c5 52 -9
72 -48 69 -28 -2 -29 -3 -27 -57z"/>
<path d="M9463 3643 c-7 -2 -13 -9 -13 -15 0 -7 5 -6 14 1 16 13 49 4 43 -13
-2 -6 -17 -13 -33 -16 -23 -4 -29 -10 -29 -30 0 -22 4 -25 38 -25 37 -1 37 0
37 40 0 54 -19 74 -57 58z m47 -61 c0 -14 -23 -32 -42 -32 -18 0 -25 20 -11
33 9 10 53 9 53 -1z"/>
<path d="M9637 3632 c-42 -46 0 -108 57 -86 9 3 16 10 16 15 0 5 -9 4 -20 -3
-15 -9 -25 -10 -37 -2 -33 20 -26 34 16 34 34 0 41 3 41 20 0 18 -26 40 -48
40 -5 0 -16 -8 -25 -18z m51 -4 c20 -20 14 -28 -23 -28 -38 0 -46 13 -17 29
22 13 26 13 40 -1z"/>
<path d="M9768 3643 c-15 -4 -18 -14 -16 -56 l2 -52 3 47 c6 75 51 73 63 -4
l7 -43 2 46 c1 46 15 65 39 50 6 -3 12 -27 15 -51 l4 -45 1 46 c2 54 -18 80
-47 62 -11 -7 -23 -8 -32 -2 -8 5 -16 8 -19 8 -3 -1 -13 -3 -22 -6z"/>
<path d="M10089 3633 c-13 -15 -12 -15 10 -4 30 17 43 3 39 -40 -2 -29 -7 -34
-28 -34 -15 0 -25 6 -25 15 0 8 11 17 25 21 22 6 23 7 4 8 -12 1 -27 -6 -34
-14 -18 -22 5 -46 41 -43 28 2 29 5 29 49 0 34 -5 49 -16 53 -24 9 -30 8 -45
-11z"/>
<path d="M10202 3638 c-20 -20 -14 -35 18 -47 17 -5 30 -15 30 -21 0 -18 -29
-23 -47 -9 -14 12 -16 12 -11 -1 3 -9 17 -15 34 -15 22 0 30 5 32 21 2 16 -4
24 -27 32 -17 6 -31 16 -31 22 0 18 29 23 48 9 15 -13 16 -12 3 4 -16 20 -32
22 -49 5z"/>
<path d="M10369 3633 c-13 -15 -12 -15 9 -4 18 10 27 10 38 1 18 -16 9 -30
-20 -30 -13 0 -29 -7 -36 -15 -19 -23 5 -45 46 -42 32 2 34 4 34 39 0 57 -42
87 -71 51z m59 -55 c-6 -18 -34 -32 -51 -25 -10 4 -14 13 -11 22 7 18 68 21
62 3z"/>
<path d="M9403 3590 c0 -30 2 -43 4 -27 2 15 2 39 0 55 -2 15 -4 2 -4 -28z"/>
<path d="M9352 3088 l-2 -78 40 0 c22 0 40 5 40 10 0 6 -16 10 -35 10 l-34 0
-4 68 -3 67 -2 -77z"/>
<path d="M9450 3101 c0 -66 15 -91 55 -91 35 0 55 36 55 97 0 29 -4 53 -10 53
-6 0 -10 -26 -10 -59 0 -66 -18 -93 -48 -74 -12 7 -18 27 -20 72 -4 78 -22 80
-22 2z"/>
<path d="M9590 3085 l0 -75 44 0 c55 0 74 19 59 59 -6 17 -7 35 -2 44 14 24
-16 47 -62 47 l-39 0 0 -75z m88 38 c-2 -12 -14 -19 -36 -21 -27 -3 -32 0 -32
17 0 17 6 21 36 21 28 0 35 -3 32 -17z m5 -55 c8 -25 -6 -38 -39 -38 -30 0
-34 3 -34 25 0 22 4 25 34 25 19 0 36 -6 39 -12z"/>
<path d="M8944 2557 c-2 -7 -4 -54 -2 -103 l3 -89 53 -3 52 -3 0 34 c0 22 -6
37 -15 41 -8 3 -15 12 -15 21 0 9 7 18 15 21 8 4 15 14 15 23 0 24 20 41 47
41 16 0 23 -6 23 -20 0 -11 -7 -20 -15 -20 -19 0 -19 -10 1 -24 15 -12 10 -46
-7 -46 -5 0 -9 -16 -9 -36 0 -33 2 -35 28 -32 l27 3 0 100 0 100 -98 3 c-75 2
-99 0 -103 -11z"/>
<path d="M9261 2463 c2 -60 3 -69 8 -38 5 36 9 41 41 46 l35 6 -38 2 c-34 1
-38 4 -35 24 2 17 11 23 43 28 l40 6 -47 2 -48 1 1 -77z"/>
<path d="M9702 2470 l-2 -75 28 -2 c37 -2 52 13 52 52 0 38 -21 59 -49 50 -16
-5 -20 -1 -24 22 -2 15 -5 -6 -5 -47z m56 8 c30 -30 -1 -94 -33 -68 -25 20
-13 80 15 80 3 0 11 -5 18 -12z"/>
<path d="M10033 2465 c-1 -44 2 -69 6 -56 9 34 25 36 41 6 7 -14 17 -25 23
-25 5 0 -1 16 -13 35 -22 35 -22 36 -4 58 19 22 19 22 -7 0 -14 -13 -28 -23
-32 -23 -3 0 -8 19 -10 43 -2 23 -4 6 -4 -38z"/>
<path d="M9380 2485 c-14 -17 0 -21 17 -4 13 13 43 5 43 -10 0 -6 -15 -14 -32
-19 -26 -6 -33 -14 -33 -33 0 -21 4 -24 42 -25 l43 -1 -6 41 c-3 23 -7 47 -10
54 -5 17 -49 15 -64 -3z m46 -73 c-15 -15 -17 -15 -33 0 -17 18 -17 18 27 31
22 6 25 -12 6 -31z"/>
<path d="M9496 2484 c-9 -8 -16 -26 -16 -39 0 -23 23 -55 40 -55 21 0 40 14
40 29 -1 14 -2 14 -11 -1 -24 -42 -71 3 -50 48 12 28 24 30 45 8 14 -13 16
-13 16 -1 0 14 -20 27 -40 27 -5 0 -16 -7 -24 -16z"/>
<path d="M9596 2484 c-32 -31 -10 -94 33 -94 21 0 47 27 37 38 -4 4 -12 -1
-17 -11 -13 -23 -36 -22 -49 3 -10 18 -8 20 30 20 33 0 40 3 40 20 0 18 -26
40 -49 40 -5 0 -17 -7 -25 -16z m52 -17 c3 -12 -3 -17 -22 -17 -25 0 -35 18
-19 34 12 12 38 2 41 -17z"/>
<path d="M9817 2482 c-22 -24 -21 -55 1 -75 36 -33 72 -14 72 38 0 53 -41 73
-73 37z m51 -4 c28 -28 3 -85 -32 -72 -19 7 -22 70 -3 77 19 8 22 8 35 -5z"/>
<path d="M9923 2474 c-15 -24 -15 -29 -2 -53 10 -17 23 -26 39 -26 16 0 29 9
39 26 13 24 13 29 -2 53 -10 14 -26 26 -37 26 -11 0 -27 -12 -37 -26z m55 4
c30 -30 -1 -94 -33 -68 -25 20 -13 80 15 80 3 0 11 -5 18 -12z"/>
<path d="M8393 1934 c-34 -17 -49 -42 -34 -57 5 -5 21 0 40 14 27 20 36 22 60
12 21 -8 32 -8 40 0 17 17 13 24 -20 36 -41 14 -48 14 -86 -5z"/>
<path d="M9420 1884 c0 -8 5 -12 10 -9 6 4 8 11 5 16 -9 14 -15 11 -15 -7z"/>
<path d="M10135 1875 c-14 -13 -25 -29 -25 -35 0 -16 21 -53 34 -62 23 -16 65
-8 80 14 24 34 20 48 -14 48 -16 0 -30 -4 -30 -10 0 -5 9 -10 20 -10 26 0 26
-16 -1 -30 -45 -25 -94 47 -54 80 9 8 28 10 48 6 30 -5 31 -5 13 9 -28 21 -43
19 -71 -10z"/>
<path d="M8698 1883 l33 -4 -36 -49 c-19 -26 -35 -50 -35 -54 0 -3 20 -6 45
-6 25 0 45 5 45 10 0 6 -13 10 -30 10 -16 0 -30 3 -30 6 0 3 14 23 30 44 17
21 30 41 30 44 0 3 -19 5 -42 4 -38 -1 -39 -2 -10 -5z"/>
<path d="M8870 1830 c0 -33 4 -60 10 -60 6 0 10 27 10 60 0 33 -4 60 -10 60
-6 0 -10 -27 -10 -60z"/>
<path d="M10593 1830 c0 -36 2 -50 4 -32 2 17 2 47 0 65 -2 17 -4 3 -4 -33z"/>
<path d="M8785 1850 c-4 -6 3 -9 16 -7 12 1 24 -4 27 -12 3 -10 0 -12 -11 -8
-21 8 -52 -16 -44 -36 4 -11 17 -16 42 -15 32 1 35 4 35 33 0 17 -5 36 -12 43
-15 15 -45 16 -53 2z m43 -52 c-7 -19 -38 -22 -38 -4 0 10 9 16 21 16 12 0 19
-5 17 -12z"/>
<path d="M8926 1844 c-19 -18 -20 -28 -6 -55 20 -37 80 -18 80 26 0 42 -44 59
-74 29z m64 -28 c0 -20 -25 -37 -44 -30 -19 7 -22 50 -3 57 17 6 47 -11 47
-27z"/>
<path d="M9029 1844 c-21 -25 1 -69 34 -69 15 1 27 -5 27 -11 0 -17 -22 -23
-44 -12 -14 8 -17 7 -14 -4 7 -21 50 -22 65 -2 7 10 13 39 13 64 0 46 0 47
-34 48 -20 1 -39 -5 -47 -14z m61 -29 c0 -13 -6 -25 -12 -28 -22 -7 -38 4 -38
28 0 13 6 25 13 28 21 7 37 -4 37 -28z"/>
<path d="M9144 1820 c1 -44 2 -45 34 -46 32 -1 32 -1 30 45 -1 35 -2 39 -5 14
-5 -35 -29 -62 -43 -47 -5 5 -11 25 -13 44 -3 27 -4 25 -3 -10z"/>
<path d="M9238 1798 c-4 -70 -4 -73 11 -63 13 8 15 125 2 125 -5 0 -11 -28
-13 -62z"/>
<path d="M9337 1853 c-15 -14 -6 -34 19 -43 29 -12 22 -34 -8 -24 -14 4 -18 2
-14 -5 10 -15 53 -14 59 2 7 19 -4 34 -27 38 -24 5 -18 25 7 22 10 -2 15 2 12
7 -7 11 -38 13 -48 3z"/>
<path d="M9423 1815 c0 -27 2 -38 4 -22 2 15 2 37 0 50 -2 12 -4 0 -4 -28z"/>
<path d="M9471 1841 c-16 -29 -13 -48 7 -63 10 -7 21 -21 25 -30 3 -10 12 -18
19 -18 9 0 9 3 0 12 -9 9 -8 16 4 29 15 17 14 18 -11 16 -15 -1 -30 4 -32 11
-3 8 7 12 31 12 32 0 35 2 27 23 -11 30 -56 35 -70 8z m57 -8 c2 -8 -6 -13
-22 -13 -25 0 -33 10 -19 24 10 10 36 3 41 -11z"/>
<path d="M9610 1793 c0 -35 4 -63 10 -63 6 0 10 11 10 24 0 19 4 23 20 19 26
-7 50 13 50 42 0 30 -19 44 -58 43 l-32 -1 0 -64z m70 22 c0 -13 -6 -25 -12
-28 -22 -7 -38 4 -38 28 0 13 6 25 13 28 21 7 37 -4 37 -28z"/>
<path d="M9720 1813 c0 -24 5 -43 10 -43 6 0 10 16 10 35 0 24 5 35 15 35 8 0
15 4 15 9 0 5 -11 8 -25 7 -23 -1 -25 -5 -25 -43z"/>
<path d="M9790 1850 c0 -5 9 -10 21 -10 l20 0 -20 -29 c-28 -39 -27 -41 17
-40 20 0 30 3 22 6 -8 2 -21 7 -29 9 -11 3 -8 12 12 32 35 37 34 42 -8 42 -19
0 -35 -4 -35 -10z"/>
<path d="M9892 1848 c-29 -29 -7 -78 34 -78 13 0 26 5 30 11 5 8 -1 10 -18 6
-17 -5 -30 -2 -38 8 -11 13 -7 15 24 15 23 0 36 5 36 13 0 18 -21 37 -40 37
-9 0 -21 -5 -28 -12z m48 -13 c11 -13 8 -15 -14 -15 -25 0 -33 10 -19 23 10
11 19 8 33 -8z"/>
<path d="M9980 1850 c0 -5 12 -10 27 -10 l27 0 -27 -28 c-15 -15 -27 -31 -27
-35 0 -4 17 -6 38 -6 23 1 28 3 15 6 -28 5 -28 11 -3 43 27 35 25 40 -15 40
-19 0 -35 -4 -35 -10z"/>
<path d="M10266 1844 c-19 -18 -20 -28 -6 -55 20 -37 80 -18 80 26 0 42 -44
59 -74 29z m64 -28 c0 -20 -25 -37 -44 -30 -19 7 -22 50 -3 57 17 6 47 -11 47
-27z"/>
<path d="M10369 1839 c-16 -30 3 -69 34 -69 29 0 47 17 47 45 0 45 -60 63 -81
24z m65 -14 c7 -20 -17 -47 -37 -39 -20 7 -23 50 -4 57 17 6 34 -2 41 -18z"/>
<path d="M10479 1844 c-21 -25 1 -69 34 -69 15 1 27 -5 27 -11 0 -17 -22 -23
-44 -12 -14 8 -17 7 -14 -4 7 -21 50 -22 65 -2 7 10 13 39 13 64 0 46 0 47
-34 48 -20 1 -39 -5 -47 -14z m61 -29 c0 -13 -6 -25 -12 -28 -22 -7 -38 4 -38
28 0 13 6 25 13 28 21 7 37 -4 37 -28z"/>
<path d="M10629 1839 c-16 -31 3 -69 35 -69 14 0 28 5 32 12 5 8 2 9 -9 5 -20
-7 -47 1 -47 14 0 5 16 9 35 9 38 0 40 2 25 31 -14 26 -56 25 -71 -2z m59 -6
c2 -8 -6 -13 -22 -13 -25 0 -33 10 -19 24 10 10 36 3 41 -11z"/>
<path d="M8450 1836 c0 -11 10 -16 30 -16 31 0 37 -9 20 -26 -8 -8 -6 -15 4
-23 12 -10 16 -9 24 6 6 10 12 29 13 43 4 23 1 25 -43 28 -38 2 -48 0 -48 -12z"/>
</g>
</svg>
